<svg width="55" height="54" viewBox="0 0 55 54" fill="none" xmlns="http://www.w3.org/2000/svg">
<path d="M14.2313 28.7538C18.6164 28.7538 22.1712 25.2047 22.1712 20.8266C22.1712 16.4485 18.6164 12.8994 14.2313 12.8994C9.8462 12.8994 6.29138 16.4485 6.29138 20.8266C6.29138 25.2047 9.8462 28.7538 14.2313 28.7538Z" fill="white"/>
<path d="M28.8477 3.59856C34.5855 3.59856 40.0884 5.87427 44.1457 9.92505C48.203 13.9758 50.4823 19.4699 50.4823 25.1986H54.0866C54.0855 18.5158 51.426 12.1072 46.693 7.38175C41.9601 2.65635 35.5411 0.00114538 28.8477 0V3.59856Z" fill="#DB062C"/>
<path d="M28.8477 7.20151C31.2149 7.20151 33.5589 7.66702 35.7459 8.57146C37.9329 9.4759 39.9201 10.8016 41.594 12.4727C43.2678 14.1439 44.5956 16.1279 45.5015 18.3114C46.4074 20.4949 46.8737 22.8352 46.8737 25.1986H50.4823C50.4823 19.47 48.203 13.9759 44.1457 9.92513C40.0884 5.87434 34.5855 3.59863 28.8477 3.59863V7.20151Z" fill="#EF7A00"/>
<path d="M28.8477 10.8C32.6725 10.8 36.3407 12.317 39.0453 15.0172C41.7499 17.7175 43.2693 21.3798 43.2693 25.1985H46.8736C46.8736 22.8351 46.4074 20.4948 45.5015 18.3113C44.5956 16.1278 43.2678 14.1438 41.594 12.4727C39.9201 10.8015 37.9329 9.47581 35.7459 8.57137C33.5589 7.66693 31.2149 7.20142 28.8477 7.20142V10.8Z" fill="#F3EB1C"/>
<path d="M28.8477 14.3986C31.7166 14.3986 34.468 15.5365 36.4967 17.5619C38.5253 19.5872 39.665 22.3343 39.665 25.1986H43.2693C43.2693 21.3799 41.7499 17.7175 39.0453 15.0173C36.3407 12.317 32.6725 10.8 28.8477 10.8V14.3986Z" fill="#009C4D"/>
<path d="M28.8477 18.0016C30.7595 18.0016 32.5931 18.7598 33.945 20.1095C35.2968 21.4593 36.0563 23.2899 36.0563 25.1987H39.665C39.665 22.3343 38.5253 19.5873 36.4967 17.5619C34.468 15.5365 31.7166 14.3987 28.8477 14.3987V18.0016Z" fill="#4FC2F1"/>
<path d="M28.8477 21.6C29.8036 21.6 30.7204 21.9792 31.3963 22.654C32.0722 23.3289 32.452 24.2442 32.452 25.1986H36.0563C36.0563 23.2898 35.2968 21.4592 33.945 20.1095C32.5931 18.7597 30.7595 18.0015 28.8477 18.0015V21.6Z" fill="#0065B2"/>
<path d="M28.8477 25.1987H32.452C32.452 24.2443 32.0722 23.329 31.3963 22.6541C30.7204 21.9792 29.8036 21.6001 28.8477 21.6001V25.1987Z" fill="#643791"/>
<path d="M25.239 28.8015V3.59863C20.617 3.59949 16.0839 4.86729 12.1341 7.26378C8.18426 9.66027 4.96925 13.0935 2.83962 17.189C0.709992 21.2846 -0.252509 25.8853 0.0570643 30.4896C0.366638 35.0938 1.9364 39.5248 4.5952 43.2994L0 54.0001L10.7178 49.4122C14.4985 52.0668 18.9366 53.634 23.5482 53.9431C28.1599 54.2522 32.768 53.2912 36.8701 51.165C40.9722 49.0388 44.4109 45.8289 46.8113 41.8854C49.2116 37.9419 50.4814 33.4161 50.4823 28.8015H25.239ZM13.7467 27.8986C12.6966 27.9023 11.6593 27.6697 10.7117 27.2181C9.76411 26.7664 8.93064 26.1074 8.27323 25.29C7.61582 24.4725 7.15138 23.5177 6.91441 22.4964C6.67745 21.4751 6.67405 20.4136 6.90448 19.3908C7.13491 18.368 7.59324 17.4102 8.24541 16.5886C8.89758 15.767 9.72681 15.1027 10.6715 14.645C11.6162 14.1873 12.652 13.9481 13.702 13.9451C14.7521 13.9421 15.7893 14.1754 16.7366 14.6276H16.676C15.9411 14.6262 15.2213 14.8357 14.6023 15.2311C13.9833 15.6266 13.4912 16.1914 13.1846 16.8582C12.878 17.525 12.7698 18.2657 12.8729 18.9922C12.976 19.7186 13.2861 20.4002 13.7662 20.9557C14.2463 21.5111 14.8762 21.9172 15.5809 22.1253C16.2856 22.3335 17.0353 22.3351 17.7409 22.1299C18.4465 21.9246 19.0781 21.5213 19.5605 20.9678C20.0429 20.4143 20.3559 19.7341 20.4621 19.0081C20.7633 20.0461 20.8181 21.14 20.622 22.2029C20.426 23.2657 19.9847 24.2684 19.3329 25.1313C18.6811 25.9941 17.8369 26.6935 16.8672 27.1739C15.8976 27.6542 14.8291 27.9024 13.7467 27.8986V27.8986Z" fill="#2D4B71"/>
</svg>
